<?xml version="1.0" standalone="no"?>
<!DOCTYPE svg PUBLIC "-//W3C//DTD SVG 1.0//EN" "http://www.w3.org/TR/2001/REC-SVG-20010904/DTD/svg10.dtd">
<svg xmlns="http://www.w3.org/2000/svg" xmlns:xlink="http://www.w3.org/1999/xlink" id="body_1" width="1024" height="768">

<g transform="matrix(1 0 0 1 0 0)">
	<g transform="matrix(1.5 0 0 1.5 128.00003 -0)">
        <path d="M416 208C 416 253.9 401.1 296.3 376 330.7L376 330.7L502.6 457.4C 515.1 469.9 515.1 490.19998 502.6 502.69998C 490.10004 515.19995 469.80002 515.19995 457.30002 502.69998L457.30002 502.69998L330.7 376C 296.30002 401.2 253.90001 416 208.00002 416C 93.1 416 0 322.9 0 208C 0 93.100006 93.1 0 208 0C 322.9 0 416 93.1 416 208zM208 352C 259.44626 352 306.98456 324.55377 332.70767 280C 358.4308 235.44623 358.4308 180.55374 332.70764 135.99998C 306.98453 91.44623 259.44626 64 208 64C 156.55374 64 109.01546 91.44624 83.292336 136C 57.569214 180.55377 57.569214 235.44626 83.29234 280C 109.01547 324.55377 156.55374 352 208 352z" stroke="none" fill="#000000" fill-rule="nonzero" />
	</g>
</g>
</svg>